<svg width="470" height="697" viewBox="0 0 470 697" fill="none" xmlns="http://www.w3.org/2000/svg">
<g clip-path="url(#clip0)">
<path d="M447.914 246.463V251.182C444.389 256.729 438.405 260.703 431.355 262.027H344.707V246.463H447.914Z" fill="#CCCABC"/>
<path d="M115.831 199.273C115.831 200.515 115.749 201.757 115.585 202.916C114.356 210.781 109.437 217.155 102.797 219.97H88.2876C87.7137 219.722 87.2219 219.473 86.6481 219.225C79.9261 215.665 75.2535 208.049 75.2535 199.273C75.2535 187.02 84.3528 177.085 95.5834 177.085C106.814 177.085 115.831 187.02 115.831 199.273Z" fill="#CCCABC"/>
<path d="M130.915 219.97C147.621 219.97 161.164 206.664 161.164 190.249C161.164 173.834 147.621 160.528 130.915 160.528C114.209 160.528 100.666 173.834 100.666 190.249C100.666 206.664 114.209 219.97 130.915 219.97Z" fill="#CCCABC"/>
<path d="M188.38 195.133C188.38 199.604 187.232 203.826 185.265 207.386C181.986 213.43 176.247 217.818 169.525 219.225C168.05 219.556 166.492 219.722 164.935 219.722C163.377 219.722 161.82 219.556 160.344 219.225C151.819 217.486 144.933 210.781 142.473 202.171C141.818 199.935 141.49 197.534 141.49 195.051C141.49 181.473 151.983 170.462 164.935 170.462C177.805 170.545 188.38 181.556 188.38 195.133Z" fill="#CCCABC"/>
<path d="M184.527 202.916V208.131C181.248 214.175 175.509 218.563 168.788 219.97H88.2056C87.6318 219.722 87.1399 219.473 86.5661 219.225V202.916H184.527V202.916Z" fill="#CCCABC"/>
<path d="M359.462 260.04C372.23 260.04 382.58 251.663 382.58 241.329C382.58 230.996 372.23 222.619 359.462 222.619C346.695 222.619 336.345 230.996 336.345 241.329C336.345 251.663 346.695 260.04 359.462 260.04Z" fill="#CCCABC"/>
<path d="M345.445 227.835V286.864C345.445 289.844 345.281 292.742 344.953 295.639H134.768C134.44 292.742 134.276 289.844 134.276 286.864V227.835C134.276 178.658 179.69 138.34 236.007 136.519C237.319 136.436 238.549 136.436 239.86 136.436C253.222 136.436 266.01 138.589 277.733 142.562C291.587 147.199 304.047 154.318 314.376 163.26C333.558 179.817 345.445 202.667 345.445 227.835Z" fill="#474747"/>
<path d="M345.773 341.09V349.949H134.276V286.45H345.445C345.527 304.663 345.609 322.877 345.773 341.09Z" fill="#474747"/>
<path d="M345.855 285.208H158.868V349.866H345.855V285.208Z" fill="#797A7A"/>
<path d="M166.984 393.661H130.341C123.947 393.661 118.701 388.445 118.701 381.905V352.432C118.701 345.975 123.865 340.676 130.341 340.676H166.984V393.661Z" fill="#474747"/>
<path d="M371.677 352.432V381.905C371.677 388.363 366.512 393.661 360.036 393.661H152.884C146.49 393.661 141.244 388.445 141.244 381.905V352.432C141.244 345.975 146.408 340.676 152.884 340.676H360.036C366.43 340.759 371.677 345.975 371.677 352.432Z" fill="#797A7A"/>
<path d="M345.855 283.469C345.855 284.463 345.855 285.539 345.773 286.532H345.855V291.169C345.773 291.665 345.773 292.245 345.691 292.742H159.196C159.196 292.328 159.114 291.914 159.114 291.582C158.868 289.099 158.786 286.615 158.786 284.131V226.179C158.786 182.467 191.905 145.791 235.27 138.009C238.139 137.512 241.09 137.098 244.041 136.85C244.533 136.85 245.025 136.767 245.599 136.767C246.5 136.684 247.484 136.684 248.386 136.602C248.96 136.602 249.451 136.602 249.943 136.684C251.419 136.767 252.894 136.85 254.37 137.016C256.911 137.264 259.452 137.595 261.994 137.926H262.158C263.305 138.092 264.453 138.34 265.601 138.506C285.029 142.231 302.326 150.758 315.933 162.68C334.378 178.907 345.855 201.177 345.855 225.682V283.469V283.469Z" fill="#797A7A"/>
<path d="M372.661 352.764V381.988C372.661 388.446 367.004 393.661 360.036 393.661H244.451V136.271C245.926 136.271 247.32 136.271 248.796 136.353C249.369 136.353 249.861 136.353 250.353 136.436C251.829 136.519 253.304 136.602 254.78 136.767C257.321 137.016 259.862 137.347 262.404 137.678H262.567C263.715 137.843 264.863 138.092 266.01 138.257C285.439 141.983 302.735 150.51 316.343 162.432C334.788 178.576 346.264 200.846 346.264 225.351V282.89C346.264 283.883 346.264 284.959 346.182 285.953H346.264V341.09H360.036C367.004 341.09 372.661 346.306 372.661 352.764Z" fill="#616160"/>
<path d="M182.723 224.689C181.904 225.434 181.084 226.179 180.264 226.924C173.378 216.576 166.492 206.31 159.606 195.961C161.656 194.14 163.623 192.236 165.672 190.415C171.411 201.839 177.067 213.264 182.723 224.689Z" fill="#474747"/>
<path d="M209.119 236.528C208.3 237.107 207.48 237.687 206.578 238.267L205.103 237.604L180.346 226.842L180.264 220.301C188.052 224.358 195.839 228.415 203.627 232.471C205.103 233.216 206.496 233.961 207.972 234.707C208.3 235.369 208.71 235.948 209.119 236.528Z" fill="#474747"/>
<path d="M226.252 262.027L205.103 237.604L204.611 237.025L202.643 234.79L203.627 232.554C205.103 233.299 206.496 234.044 207.972 234.79C208.382 235.369 208.792 235.949 209.119 236.528C214.776 244.973 220.514 253.5 226.252 262.027Z" fill="#474747"/>
<path d="M345.691 333.142V340.759C345.691 340.759 345.691 340.842 345.691 340.925C336.017 335.047 326.262 329.169 316.589 323.208L317.983 320.724C327.246 324.864 336.427 329.003 345.691 333.142Z" fill="#474747"/>
<path d="M304.621 297.958C304.293 298.785 304.047 299.696 303.719 300.524L304.457 301.849L316.671 323.374L321.59 322.629C317.245 315.923 312.9 309.3 308.556 302.594C307.736 301.352 306.916 300.11 306.178 298.868C305.605 298.537 305.113 298.206 304.621 297.958Z" fill="#474747"/>
<path d="M282.569 285.374L304.457 301.849L305.031 302.263L307.08 303.753L308.556 302.511C307.736 301.269 306.916 300.027 306.178 298.785C305.687 298.537 305.195 298.206 304.621 297.957C297.243 293.735 289.947 289.513 282.569 285.374Z" fill="#474747"/>
<path d="M310.113 310.21C311.671 310.707 313.146 311.204 314.704 311.7C319.54 306.65 324.377 301.517 329.214 296.467C329.541 296.053 329.951 295.722 330.279 295.308C330.197 295.225 330.197 295.06 330.115 294.977C329.787 294.646 329.459 294.315 329.132 293.983C328.886 294.232 328.558 294.48 328.312 294.728C322.246 299.861 316.179 305.077 310.113 310.21Z" fill="#474747"/>
<path d="M328.394 294.729L328.476 294.894L328.64 295.143L329.213 296.384L333.968 305.988C332.738 302.594 331.591 299.117 330.361 295.722C330.361 295.557 330.279 295.474 330.279 295.391C330.197 295.308 330.197 295.143 330.115 295.06C329.787 294.729 329.459 294.398 329.132 294.066C328.886 294.315 328.64 294.563 328.394 294.729Z" fill="#474747"/>
<path d="M194.364 228.911C194.036 229.325 193.626 229.656 193.298 230.07C188.708 234.872 184.199 239.674 179.608 244.393C179.362 244.724 179.034 244.972 178.789 245.221C177.805 244.89 176.821 244.558 175.755 244.227L175.509 242.571C176.247 241.909 176.985 241.33 177.723 240.667C182.559 236.528 187.478 232.388 192.314 228.249C192.56 228.001 192.888 227.752 193.134 227.504C193.462 227.835 193.79 228.166 194.118 228.497C194.282 228.663 194.282 228.746 194.364 228.911Z" fill="#474747"/>
<path d="M196.331 251.927C190.265 249.609 184.117 247.291 178.051 245.055C177.641 244.89 177.313 244.807 176.903 244.641H176.821C176.575 244.393 176.411 244.062 176.165 243.813C176.493 243.068 176.821 242.323 177.149 241.578L177.805 241.909L178.297 242.158L179.854 242.986L196.331 251.927Z" fill="#474747"/>
<path d="M328.066 192.898C339.158 192.898 348.15 183.817 348.15 172.615C348.15 161.413 339.158 152.332 328.066 152.332C316.974 152.332 307.982 161.413 307.982 172.615C307.982 183.817 316.974 192.898 328.066 192.898Z" fill="white"/>
<path d="M248.632 245.635C246.254 245.635 243.795 245.635 241.418 245.635C240.106 215.831 238.795 186.027 237.401 156.223H251.419C250.599 186.027 249.615 215.831 248.632 245.635Z" fill="#CCCABC"/>
<path d="M269.194 189.575V180.882H220.992V189.575H269.194Z" fill="#CCCABC"/>
<path d="M148.622 132.296C146.9 132.296 145.424 130.889 145.424 129.068V114.497C145.424 112.758 146.818 111.268 148.622 111.268C150.343 111.268 151.819 112.675 151.819 114.497V129.15C151.819 130.889 150.425 132.296 148.622 132.296Z" fill="#CCCABC"/>
<path d="M138.047 121.783C138.047 120.044 139.44 118.637 141.162 118.637H155.671C157.393 118.637 158.786 120.044 158.786 121.783C158.786 123.521 157.393 124.929 155.671 124.929H141.162C139.44 125.011 138.047 123.604 138.047 121.783Z" fill="#CCCABC"/>
<path d="M385.613 313.356C383.891 313.356 382.416 311.949 382.416 310.127V295.556C382.416 293.818 383.809 292.328 385.613 292.328C387.334 292.328 388.81 293.735 388.81 295.556V310.127C388.81 311.949 387.416 313.356 385.613 313.356Z" fill="#CCCABC"/>
<path d="M375.038 302.842C375.038 301.103 376.431 299.696 378.153 299.696H392.663C394.384 299.696 395.778 301.103 395.778 302.842C395.778 304.58 394.384 305.988 392.663 305.988H378.153C376.431 306.071 375.038 304.58 375.038 302.842Z" fill="#CCCABC"/>
<path d="M358.807 149.351C357.085 149.351 355.61 147.944 355.61 146.122V131.552C355.61 129.813 357.003 128.323 358.807 128.323C360.528 128.323 362.004 129.73 362.004 131.552V146.122C361.922 147.944 360.528 149.351 358.807 149.351Z" fill="#CCCABC"/>
<path d="M348.15 138.92C348.15 137.181 349.543 135.774 351.265 135.774H365.775C367.496 135.774 368.89 137.181 368.89 138.92C368.89 140.658 367.496 142.066 365.775 142.066H351.265C349.625 142.066 348.15 140.658 348.15 138.92Z" fill="#CCCABC"/>
<path d="M266.994 121.782C275.053 121.782 281.586 115.185 281.586 107.046C281.586 98.9073 275.053 92.3096 266.994 92.3096C258.935 92.3096 252.402 98.9073 252.402 107.046C252.402 115.185 258.935 121.782 266.994 121.782Z" fill="#CCCABC"/>
<path d="M256.993 121.782C265.052 121.782 271.585 115.185 271.585 107.046C271.585 98.9073 265.052 92.3096 256.993 92.3096C248.934 92.3096 242.402 98.9073 242.402 107.046C242.402 115.185 248.934 121.782 256.993 121.782Z" fill="white"/>
<path d="M91.1568 274.859C99.2155 274.859 105.748 268.261 105.748 260.123C105.748 251.984 99.2155 245.386 91.1568 245.386C83.098 245.386 76.5651 251.984 76.5651 260.123C76.5651 268.261 83.098 274.859 91.1568 274.859Z" fill="#CCCABC"/>
<path d="M101.158 274.777C109.216 274.777 115.749 268.179 115.749 260.04C115.749 251.901 109.216 245.304 101.158 245.304C93.099 245.304 86.5661 251.901 86.5661 260.04C86.5661 268.179 93.099 274.777 101.158 274.777Z" fill="white"/>
<path d="M391.351 262.027C408.962 262.027 423.239 248.572 423.239 231.975C423.239 215.377 408.962 201.922 391.351 201.922C373.739 201.922 359.462 215.377 359.462 231.975C359.462 248.572 373.739 262.027 391.351 262.027Z" fill="#CCCABC"/>
<path d="M451.931 239.26C451.931 243.317 450.701 247.208 448.652 250.519C445.127 256.066 439.143 260.04 432.093 261.365C430.535 261.613 428.896 261.779 427.256 261.779C425.617 261.779 423.977 261.613 422.42 261.365C413.402 259.709 406.188 253.665 403.565 245.8C402.909 243.731 402.5 241.578 402.5 239.343C402.5 226.924 413.566 216.824 427.256 216.824C440.864 216.824 451.931 226.842 451.931 239.26Z" fill="#CCCABC"/>
<path d="M430.207 253.251C430.569 253.251 430.863 253.177 430.863 253.086C430.863 252.994 430.569 252.92 430.207 252.92C429.845 252.92 429.551 252.994 429.551 253.086C429.551 253.177 429.845 253.251 430.207 253.251Z" fill="#CCCABC"/>
</g>
<defs>
<clipPath id="clip0">
<rect width="488" height="697" fill="white"/>
</clipPath>
</defs>
</svg>
